<svg width="31" height="6" viewBox="0 0 31 6" fill="none" xmlns="http://www.w3.org/2000/svg">
<g id="Group 1000010839">
<path id="path418" d="M29.2617 -0.000507832V4.60938H30.7922V-0.000507832H29.2617Z" fill="#303030"/>
<path id="path420" d="M25.8866 1.15158H19.8852V-0.000550747H18.3547V0.917693V2.51936V3.64003H14.875V5.00781H18.5267C19.2761 5.00781 19.8852 4.46297 19.8852 3.79367V2.51936H26.058C26.8074 2.51936 27.4171 1.97453 27.4171 1.30477V-0.000550747H25.8866V1.15158Z" fill="#303030"/>
<path id="path422" d="M10.7734 5.09961H12.3039V0.285471H10.7734V5.09961Z" fill="#303030"/>
<path id="path424" d="M7.30382 3.64003H1.53045V0.28486H0V3.79367C0 4.46297 0.609624 5.00781 1.35853 5.00781H7.47575C8.22465 5.00781 8.83427 4.46297 8.83427 3.79367V0.28486H7.30382V3.64003Z" fill="#303030"/>
<path id="path426" d="M26.5042 3.80231H25.4405C25.3074 3.80231 25.1992 3.8985 25.1992 4.0175V4.58513C25.1992 4.70413 25.3074 4.80078 25.4405 4.80078H26.5042C26.6373 4.80078 26.7455 4.70413 26.7455 4.58513V4.0175C26.7455 3.8985 26.6373 3.80231 26.5042 3.80231Z" fill="#303030"/>
<path id="path428" d="M23.8865 3.80231H22.8228C22.6897 3.80231 22.582 3.8985 22.582 4.0175V4.58513C22.582 4.70413 22.6897 4.80078 22.8228 4.80078H23.8865C24.0197 4.80078 24.1278 4.70413 24.1278 4.58513V4.0175C24.1278 3.8985 24.0197 3.80231 23.8865 3.80231Z" fill="#303030"/>
<path id="path430" d="M3.88583 1.41797H4.9495C5.08265 1.41797 5.1908 1.32131 5.1908 1.20232V0.634689C5.1908 0.515692 5.08265 0.419025 4.9495 0.419025H3.88583C3.75268 0.419025 3.64453 0.515692 3.64453 0.634689V1.20232C3.64453 1.32131 3.75268 1.41797 3.88583 1.41797Z" fill="#303030"/>
</g>
</svg>
