<svg xmlns="http://www.w3.org/2000/svg" width="230" height="45" viewBox="0 0 230 45">
    <g data-name="Group 338">
        <rect data-name="Rectangle 1161" width="230" height="45" rx="5" style="fill:#f2f2f2"/>
        <path data-name="Rectangle 1162" d="M5 0h61v45H5a5 5 0 0 1-5-5V5a5 5 0 0 1 5-5z" style="fill:#002f9c"/>
        <g data-name="Rectangle 1160" style="stroke:#a0a0a0;fill:none">
            <rect width="230" height="45" rx="5" style="stroke:none"/>
            <rect x=".5" y=".5" width="229" height="44" rx="4.5" style="fill:none"/>
        </g>
        <path data-name="Line 145" transform="translate(135 .5)" style="stroke:#a0a0a0;fill:none" d="M0 0v44"/>
        <path d="M-3.423 39.192h-.8V34.64h.8zm1.4-.8a.508.508 0 0 1 .333.134.348.348 0 0 1 .133.268.348.348 0 0 1-.133.268.508.508 0 0 1-.333.134.508.508 0 0 1-.333-.134.508.508 0 0 1-.133-.268.508.508 0 0 1 .133-.268.508.508 0 0 1 .333-.137zm3.133-1H.243v1.741h-.8V34.64H1.11a2.364 2.364 0 0 1 1.267.335 1.311 1.311 0 0 1 .467 1 1.354 1.354 0 0 1-.2.736 1.453 1.453 0 0 1-.6.469l1.066 1.879v.067H2.043zm-.867-.6h.867a1.123 1.123 0 0 0 .667-.2.762.762 0 0 0 .2-.536.66.66 0 0 0-.2-.536 1.544 1.544 0 0 0-.667-.268H.243zm3.667 1.597a.463.463 0 0 1 .467.4.348.348 0 0 1-.133.268.482.482 0 0 1-.667 0 .4.4 0 0 1 .333-.669zm2.89.669H6v-4.552h.8zm2.733-1.741H8.6v1.741h-.8v-4.552h1.667a2.364 2.364 0 0 1 1.267.335 1.311 1.311 0 0 1 .467 1 1.354 1.354 0 0 1-.2.736 1.453 1.453 0 0 1-.6.469l.933 1.941v.067h-.867zm-.933-.6h.867a1.123 1.123 0 0 0 .667-.2.762.762 0 0 0 .2-.536.66.66 0 0 0-.2-.536.882.882 0 0 0-.667-.2H8.6zm5.933 1.272h-1.8l-.4 1.071h-.867l1.8-4.552H14l1.733 4.552h-.8zm-1.6-.6h1.333L13.6 35.51zM20 39.059h-.8l-2.067-3.213v3.213h-.8v-4.553h.8L19.2 37.72v-3.214h.8z" transform="translate(34.717 -20.55)" style="fill:#fff"/>
        <path data-name="Path 11401" d="M8.357 9.287a1.561 1.561 0 0 1-.27-.474 4.814 4.814 0 0 1-3.622 1.2A6.791 6.791 0 0 1 2.276 9.7a2.273 2.273 0 0 1-1.259-.97 1.959 1.959 0 0 1-.193-.439 2.159 2.159 0 0 1-.085-.452Q.73 7.726.73 7.617t.013-.272a2.033 2.033 0 0 1 .065-.359 5.018 5.018 0 0 1 .211-.654 2.677 2.677 0 0 1 .124-.272l.752.413s-.013.032-.039.087-.055.128-.087.217-.063.194-.093.313a1.831 1.831 0 0 0-.054.374v.109a1.892 1.892 0 0 0 .03.32 1.055 1.055 0 0 0 .139.359 1.6 1.6 0 0 0 .933.67 5.767 5.767 0 0 0 1.746.226A6.877 6.877 0 0 0 6.1 8.98a2.825 2.825 0 0 0 1.122-.533 1.926 1.926 0 0 0 .343-.347 2.514 2.514 0 0 0 .246-.387 3.268 3.268 0 0 0 .174-.4q.072-.2.128-.4l.826.226q-.022.078-.05.193t-.05.235q-.022.12-.035.233a1.247 1.247 0 0 0-.013.165V8a2.159 2.159 0 0 0 .057.391.87.87 0 0 0 .183.365 1.223 1.223 0 0 0 1.013.391h.109V10h-.123a2.018 2.018 0 0 1-1.673-.713zM4.643 5.726l-.7.7-.713-.709.7-.709zm1.783 0-.7.709-.713-.713.7-.7zm3.557 3.422h.443q.13 0 .222-.013a1.463 1.463 0 0 0 .154-.022.468.468 0 0 0 .1-.033.441.441 0 0 0 .076-.046.359.359 0 0 0 .107-.128.881.881 0 0 0 .067-.18 1.36 1.36 0 0 0 .037-.211q.011-.111.02-.224v-.176q0-.167.009-.446 0-.278.009-.646t.009-.77v-.82q0-.42-.011-.8-.009-.383-.024-.7T11.17 3.4l.848-.109q.03.222.05.548t.028.707q.009.38.011.8t0 .82q0 .4-.007.776t-.009.663q0 .291-.009.48t0 .233a1.56 1.56 0 0 0 .024.246.771.771 0 0 0 .111.285.661.661 0 0 0 .233.217.913.913 0 0 0 .437.091h.1V10h-.139a1.836 1.836 0 0 1-.361-.035 1.8 1.8 0 0 1-.324-.1 1.4 1.4 0 0 1-.27-.143 1.16 1.16 0 0 1-.2-.174.891.891 0 0 1-.254.23 1.354 1.354 0 0 1-.3.135 1.768 1.768 0 0 1-.315.065 2.582 2.582 0 0 1-.283.017h-.558zm2.822 0h1.517a.947.947 0 0 0 .35-.07 1.16 1.16 0 0 0 .317-.187 1.109 1.109 0 0 0 .235-.267.683.683 0 0 0 .107-.307v-.1a1.5 1.5 0 0 0-.076-.443 2.75 2.75 0 0 0-.233-.522 4.634 4.634 0 0 0-.365-.55q-.209-.272-.437-.517t-.459-.454q-.23-.209-.426-.361l.113-.961L17.3 2.748l.335.791-3.452 1.448a5.882 5.882 0 0 1 1.03 1.07 6.1 6.1 0 0 1 .359.539q.159.27.3.539t.289.543q.143.274.309.552a2.933 2.933 0 0 0 .267.376 1.6 1.6 0 0 0 .311.285 1.461 1.461 0 0 0 .372.185 1.488 1.488 0 0 0 .446.072h.274V10h-.126a3.412 3.412 0 0 1-.55-.039A3.128 3.128 0 0 1 17 9.848a1.87 1.87 0 0 1-.572-.33 3.08 3.08 0 0 1-.454-.47 1.791 1.791 0 0 1-.374.487 1.682 1.682 0 0 1-.3.213 1.757 1.757 0 0 1-.328.139 2.326 2.326 0 0 1-.348.078q-.178.026-.361.035H12.8zm9.043 0V10h-.087a1.587 1.587 0 0 1-.73-.15 1.424 1.424 0 0 1-.478-.389 1.787 1.787 0 0 1-.3.237 1.624 1.624 0 0 1-.391.17 2.985 2.985 0 0 1-.528.1 6.728 6.728 0 0 1-.711.033h-.653v-.853h.648a3.3 3.3 0 0 0 .707-.065 1.321 1.321 0 0 0 .478-.2.785.785 0 0 0 .272-.326 1.116 1.116 0 0 0 .087-.457 3.534 3.534 0 0 0-.037-.5 4.4 4.4 0 0 0-.133-.587l.817-.23q.043.152.074.293t.052.3q.022.157.041.339t.037.413a3.07 3.07 0 0 0 .048.339 1.191 1.191 0 0 0 .115.33.713.713 0 0 0 .222.252.614.614 0 0 0 .363.1zm-2.365 2.274-.7.7-.713-.709.7-.709zm1.783 0-.7.709-.713-.713.7-.7zm.409-2.278h.1a1.016 1.016 0 0 0 .461-.1 1.3 1.3 0 0 0 .363-.27 1.8 1.8 0 0 0 .276-.385 3.472 3.472 0 0 0 .2-.454 4.865 4.865 0 0 0 .148-.476q.061-.239.1-.452l.861.183q-.035.1-.085.27t-.1.354q-.048.189-.083.387a2.131 2.131 0 0 0-.035.367 1.184 1.184 0 0 0 .022.228.609.609 0 0 0 .074.2.389.389 0 0 0 .143.139.459.459 0 0 0 .23.052.683.683 0 0 0 .4-.122 1.255 1.255 0 0 0 .313-.317 2.3 2.3 0 0 0 .239-.443 4.507 4.507 0 0 0 .174-.5q.072-.257.117-.5t.072-.42l.835.152-.022.139q-.026.143-.059.346t-.059.43a3.622 3.622 0 0 0-.026.407 1.891 1.891 0 0 0 .024.307.919.919 0 0 0 .078.257.53.53 0 0 0 .143.183.406.406 0 0 0 .22.085 1.5 1.5 0 0 0 .157.009.978.978 0 0 0 .25-.033.477.477 0 0 0 .222-.133.581.581 0 0 0 .141-.252 1.25 1.25 0 0 0 .043-.343 2.347 2.347 0 0 0-.062-.539q-.067-.287-.161-.563t-.2-.513q-.1-.237-.172-.376l.761-.4.083.167q.061.124.139.3t.161.409q.083.228.154.476a4.81 4.81 0 0 1 .117.509 2.949 2.949 0 0 1 .046.509 2.062 2.062 0 0 1-.1.676 1.318 1.318 0 0 1-.835.841 2.031 2.031 0 0 1-.709.113H26.8a1.113 1.113 0 0 1-.328-.048 1.533 1.533 0 0 1-.32-.141 1.655 1.655 0 0 1-.283-.209 1.373 1.373 0 0 1-.222-.259 2.073 2.073 0 0 1-.591.483 1.453 1.453 0 0 1-.7.178 1.421 1.421 0 0 1-.333-.041 1.4 1.4 0 0 1-.328-.124 1.279 1.279 0 0 1-.285-.2.853.853 0 0 1-.2-.283 2.147 2.147 0 0 1-.278.25 1.69 1.69 0 0 1-.322.189 1.759 1.759 0 0 1-.385.12 2.413 2.413 0 0 1-.463.041h-.091zm9.443-1.974.122.4q.061.2.109.4.052.209.107.42t.1.417q.046.207.076.407a2.6 2.6 0 0 1 .03.391 2.439 2.439 0 0 1-.111.733 3.177 3.177 0 0 1-.309.685 4 4 0 0 1-.47.63 5.756 5.756 0 0 1-.591.565 6.444 6.444 0 0 1-.674.489 7.53 7.53 0 0 1-.72.4l-.378-.765a7.08 7.08 0 0 0 .887-.524 4.974 4.974 0 0 0 .767-.65 3.221 3.221 0 0 0 .541-.748 1.76 1.76 0 0 0 .2-.817 2.169 2.169 0 0 0-.028-.339q-.028-.178-.072-.365t-.1-.374l-.1-.365q-.1-.365-.222-.73zm1.4 5.039a5.61 5.61 0 0 0 1.2-.374 4.3 4.3 0 0 0 .909-.539 2.718 2.718 0 0 0 .6-.637A1.662 1.662 0 0 0 35.5 10H35q-.189 0-.428-.022a1.837 1.837 0 0 1-1.4-.617 1.229 1.229 0 0 1-.252-.583 2.014 2.014 0 0 1-.03-.348 3.026 3.026 0 0 1 .037-.42 2.454 2.454 0 0 1 .172-.578 2.418 2.418 0 0 1 .317-.559 1.632 1.632 0 0 1 .48-.415 1.106 1.106 0 0 1 .537-.141 1.532 1.532 0 0 1 1.135.557 2.747 2.747 0 0 1 .33.461 3.339 3.339 0 0 1 .252.55 4.138 4.138 0 0 1 .165.613 4.035 4.035 0 0 1 .07.65h.415V10h-.478a3.284 3.284 0 0 1-.472 1.163 3.874 3.874 0 0 1-.826.907 4.494 4.494 0 0 1-1.078.635 5.328 5.328 0 0 1-1.228.348zm1.917-5.039a.361.361 0 0 0-.239.1.984.984 0 0 0-.2.25 1.709 1.709 0 0 0-.15.341 1.975 1.975 0 0 0-.083.372 1.346 1.346 0 0 0 0 .389.407.407 0 0 0 .089.207.512.512 0 0 0 .163.141 1.022 1.022 0 0 0 .209.087 1.545 1.545 0 0 0 .217.048q.107.015.185.02.217.013.409.013h.185q.137 0 .307-.015a3.3 3.3 0 0 0-.065-.526 2.961 2.961 0 0 0-.135-.461 2.567 2.567 0 0 0-.185-.385 2.1 2.1 0 0 0-.211-.3q-.043-.043-.1-.093a.908.908 0 0 0-.117-.091.672.672 0 0 0-.133-.067.418.418 0 0 0-.142-.026zm2.195 1.978h.839q.252 0 .491-.011a2.194 2.194 0 0 0 .443-.063 1.2 1.2 0 0 0 .361-.154.68.68 0 0 0 .243-.285.843.843 0 0 0 .065-.23 1.386 1.386 0 0 0 .013-.2q0-.057-.009-.172a2.19 2.19 0 0 0-.057-.317 2.827 2.827 0 0 0-.139-.424l-.378-.93.774-.383s.013.033.039.089.06.133.1.228.088.207.137.333.1.26.139.4a4.855 4.855 0 0 1 .226 1.113v.139a1.732 1.732 0 0 1-.13.7 1.437 1.437 0 0 1-.346.491 1.722 1.722 0 0 1-.493.313 2.47 2.47 0 0 1-.611.165 4.838 4.838 0 0 1-.689.048H36.63zM38.474 4.5l-.7.7-.717-.7.7-.709zm1.783 0-.7.709-.718-.709.7-.7zm.465 7.709a5.61 5.61 0 0 0 1.2-.374 4.3 4.3 0 0 0 .909-.539 2.718 2.718 0 0 0 .6-.637A1.662 1.662 0 0 0 43.7 10h-.5q-.189 0-.428-.022a1.837 1.837 0 0 1-1.4-.617 1.229 1.229 0 0 1-.252-.583 2.014 2.014 0 0 1-.03-.348 3.026 3.026 0 0 1 .037-.42 2.454 2.454 0 0 1 .172-.578 2.418 2.418 0 0 1 .317-.559 1.632 1.632 0 0 1 .48-.415 1.106 1.106 0 0 1 .537-.141 1.532 1.532 0 0 1 1.135.557 2.747 2.747 0 0 1 .33.461 3.339 3.339 0 0 1 .252.55 4.138 4.138 0 0 1 .165.613 4.035 4.035 0 0 1 .07.65H45V10h-.478a3.284 3.284 0 0 1-.472 1.163 3.874 3.874 0 0 1-.826.907 4.494 4.494 0 0 1-1.078.635 5.328 5.328 0 0 1-1.228.348zm1.917-5.039a.361.361 0 0 0-.239.1.984.984 0 0 0-.2.25 1.709 1.709 0 0 0-.15.341 1.975 1.975 0 0 0-.083.372 1.346 1.346 0 0 0 0 .389.407.407 0 0 0 .089.207.512.512 0 0 0 .163.141 1.022 1.022 0 0 0 .209.087 1.545 1.545 0 0 0 .217.048q.107.015.185.02.217.013.409.013h.185q.137 0 .307-.015a3.3 3.3 0 0 0-.065-.526 2.961 2.961 0 0 0-.135-.461 2.567 2.567 0 0 0-.185-.385 2.1 2.1 0 0 0-.211-.3q-.043-.043-.1-.093a.908.908 0 0 0-.117-.091.672.672 0 0 0-.133-.067.418.418 0 0 0-.146-.026zm2.278 1.974a1.523 1.523 0 0 0 .643-.12 1.363 1.363 0 0 0 .44-.313 2.124 2.124 0 0 0 .313-.452q.133-.254.267-.524.117-.243.25-.48a2.292 2.292 0 0 1 .3-.422 1.413 1.413 0 0 1 .383-.3 1.048 1.048 0 0 1 .5-.115 1.3 1.3 0 0 1 .607.137 1.47 1.47 0 0 1 .45.359 1.79 1.79 0 0 1 .3.5 2.631 2.631 0 0 1 .154.574 2.09 2.09 0 0 1 .022.3 3.334 3.334 0 0 1-.026.365 1.871 1.871 0 0 1-.139.5 1.505 1.505 0 0 1-.309.474 1.037 1.037 0 0 1-.478.28 1.371 1.371 0 0 1-.357.048 2.475 2.475 0 0 1-.267-.022 1.878 1.878 0 0 1-.435-.12 3.116 3.116 0 0 1-.489-.239q-.235-.141-.435-.289a1.771 1.771 0 0 1-.354.37 1.465 1.465 0 0 1-.393.213 1.978 1.978 0 0 1-.443.1 4.535 4.535 0 0 1-.5.026h-.091v-.846zm2.191-.561a3.355 3.355 0 0 0 .722.422 1.068 1.068 0 0 0 .391.087.627.627 0 0 0 .152-.017.278.278 0 0 0 .143-.1.739.739 0 0 0 .12-.213 1.3 1.3 0 0 0 .072-.3 1.121 1.121 0 0 0 .009-.139A1.543 1.543 0 0 0 48.7 8.1q0-.03-.022-.1a1.559 1.559 0 0 0-.05-.165 1.415 1.415 0 0 0-.085-.189.861.861 0 0 0-.126-.178.629.629 0 0 0-.174-.133.491.491 0 0 0-.23-.052.292.292 0 0 0-.163.05.616.616 0 0 0-.152.154 2.338 2.338 0 0 0-.161.261q-.085.157-.193.37z" transform="translate(7 21.724)" style="fill:#fff"/>
        <path transform="translate(7.006 11.756)" style="fill:#fff" d="M0 0h13.992v8.395H0z"/>
        <path data-name="Rectangle 1159" transform="translate(7.006 17.353)" style="fill:#da0000" d="M0 0h13.992v2.798H0z"/>
        <path data-name="Path 238" d="m2.265 1.172.114.114v.572l-.057.742a.69.69 0 0 0 .286-.286 1.059 1.059 0 0 0 0-1.088.875.875 0 0 1 .172 1.148.987.987 0 0 1-.343.343.849.849 0 0 0 .4.057.632.632 0 0 1-.458 0v.057l-.114.114-.057-.114v-.057a1.232 1.232 0 0 1-.458 0 .974.974 0 0 0 .4-.057.805.805 0 0 1-.4-.343.959.959 0 0 1 .172-1.145.957.957 0 0 0 0 1.03.69.69 0 0 0 .286.286l-.058-.686v-.573c.057 0 .057-.057.114-.114zm.4.057a.807.807 0 0 1 .572.63.785.785 0 0 1-.343.744 1.112 1.112 0 0 0 .172-.744 1.088 1.088 0 0 0-.4-.63zm-.8 0a1.088 1.088 0 0 0-.4.63 1.112 1.112 0 0 0 .172.744.785.785 0 0 1-.343-.744.807.807 0 0 1 .57-.63zm.229-.057c-.057-.057-.114-.114-.057-.172a.123.123 0 0 0 .114.114c.057 0 .114 0 .114-.057.057.057.057.057.114.057A.123.123 0 0 0 2.494 1a.21.21 0 0 1-.057.172h-.172c-.057 0-.115.057-.172 0z" transform="translate(11.928 14.19)" style="fill:#da0000"/>
        <path data-name="Path 239" d="M-9-5H5v2.862H-9z" transform="translate(16 16.755)" style="fill:#239f40"/>
        <path data-name="Path 240" d="M-7.542 5.458v.057H-7.6v-.057zm1.283 0v.057h-.058v-.057zm1.283 0v.057h-.058v-.057zm1.283 0v.057h-.058v-.057zm1.283 0v.057h-.06v-.057zm1.283 0v.057h-.058v-.057zm1.283 0v.057H.1v-.057zm1.283 0v.057h-.061v-.057zm-10.262 0v.057h-.058v-.057zm11.544 0v.057h-.06v-.057zm1.224 0v.057h-.06v-.057zm-1.75-.286V5.4h.058v-.228h.058V5.4h.058v-.228h.058v.286h-.291v-.115h-.175V5.4h.117v.057h-.233v-.171h.233v-.114zm1.283 0V5.4h.058v-.228h.058V5.4h.058v-.228h.058v.286h-.291v-.115h-.175V5.4h.117v.057h-.175v-.171h.233v-.114zm-10.9.114V5.4h.058v-.114h.175v.172h-.292V5.4h-.175v.114h-.058v-.228zm2.565 0V5.4h.057v-.114h.175v.172h-.292V5.4h-.175v.114h-.058v-.228zm2.565 0V5.4h.058v-.114h.175v.172h-.292V5.4h-.175v.114h-.058v-.228zm7.052-.114V5.4h.058v-.228h.058V5.4h.058v-.228h.058v.286H4.7v-.115h-.173V5.4h.117v.057H4.41v-.171h.233v-.114zm-4.49.114V5.4h.059v-.114H.5v.172H.212V5.4H.037v.114h-.116v-.228zm-3.848 0V5.4h.058v-.114h.175v.172h-.292V5.4h-.175v.114h-.058v-.228zm-2.565 0V5.4h.058v-.114h.175v.172h-.29V5.4h-.175v.114h-.058v-.228zm8.979 0V5.4h.058v-.114h.175v.172h-.291V5.4H2.6v.114h-.056v-.228zm-7.055-.114V5.4h.058v-.228h.061V5.4h.058v-.228h.058v.286h-.292v-.115h-.175V5.4h.117v.057h-.175v-.171h.233v-.114zm3.848 0V5.4h.058v-.228h.058V5.4H-.2v-.228h.058v.286h-.287v-.115H-.6V5.4h.117v.057h-.238v-.171h.233v-.114zm-8.338.114V5.4h.058v-.114h.233v.172h-.292V5.4h-.175v.114H-9v-.228zm9.62-.114V5.4H.97v-.228h.058V5.4h.058v-.228h.058v.286H.853v-.115H.679V5.4H.8v.057H.562v-.171H.8v-.114zm.641.114V5.4h.058v-.114h.175v.172h-.29V5.4h-.233v.114H1.2v-.228zm2.565 0V5.4h.058v-.114h.175v.172h-.29V5.4h-.233v.114h-.058v-.228zm-12.184-.114V5.4h.058v-.228h.058V5.4h.058v-.228h.058v.286h-.292v-.115H-8.3V5.4h.117v.057h-.175v-.171h.233v-.114zm6.414 0V5.4h.053v-.228h.058V5.4h.058v-.228h.058v.286h-.292v-.115h-.175V5.4h.117v.057h-.175v-.171h.233v-.114zm-1.283 0V5.4h.058v-.228h.058V5.4h.058v-.228h.062v.286h-.292v-.115l-.178.057v.057h.117v.057h-.175v-.228h.233v-.114zm-2.565 0V5.4h.058v-.228h.058V5.4h.058v-.228h.058v.286h-.291v-.115h-.175V5.4h.117v.057h-.175v-.171h.233v-.114zm-1.283 0V5.4h.058v-.228h.058V5.4h.058v-.228h.058v.286h-.292v-.115h-.175V5.4h.119v.057h-.175v-.171h.233v-.114zm5.772.114V5.4h.058v-.114h.175v.172h-.292V5.4h-.175v.114H-1.3v-.228zm5.6-.114v.057h-.819v-.057zm-2.507 0v.057H1.2v-.057zm1.283 0v.057h-.82v-.057zm-7.7 0v.057h-.816v-.057zm5.131 0v.057h-.874v-.057zm-8.979 0v.057H-9v-.057zm1.283 0v.057h-.816v-.057zm1.283 0v.057h-.816v-.057zm3.848 0v.057h-.816v-.057zm1.283 0v.057H-1.3v-.057zm-2.565 0v.057h-.816v-.057zM-5.21 5v.114h-.583V5zm.641 0v.114h-.583V5zm4.431 0v.114h-.583V5zM.5 5v.114h-.579V5zm.641 0v.114H.562V5zM-2.7 5v.114h-.583V5zm5.128 0v.114h-.583V5zm.641 0v.114h-.583V5zm.641 0v.114h-.583V5zm.641 0v.114h-.582V5zm.641 0v.114H4.41V5zm-8.919 0v.114h-.583V5zm-2.566 0v.114h-.583V5zm-.641 0v.114h-.583V5zm-.641 0v.114h-.583V5zm6.355 0v.114H-2V5zm-4.432 0v.114h-.583V5zm5.073 0v.114h-.583V5zm-2.507 0v.114h-.583V5zm-5.131 0v.114H-9V5zm6.355 0v.114h-.525V5zm3.848 0v.114H1.2V5z" transform="translate(16.007 12.353)" style="fill:#fff"/>
        <path data-name="Path 241" d="M-1.417-.6v.114H-2V-.6zM-2.7-.6v.114h-.583V-.6zm-3.791 0v.114h-.583V-.6zm6.358 0v.114h-.584V-.6zm.642 0v.114h-.585V-.6zm-7.641 0v.114h-.583V-.6zm3.85 0v.114h-.583V-.6zm7.641 0v.114h-.585V-.6zM5-.6v.114h-.585V-.6zm-9.566 0v.114h-.584V-.6zm-.642 0v.114h-.583V-.6zm-.642 0v.114h-.583V-.6zm5.075 0v.114h-.583V-.6zm-1.283 0v.114h-.525V-.6zm3.208 0v.114H.566V-.6zm2.566 0v.114h-.584V-.6zm-1.925 0v.114h-.584V-.6zm1.283 0v.114h-.583V-.6zm-7 0v.114h-.583V-.6zm6.358 0v.114h-.583V-.6zm-10.207 0v.114h-.583V-.6zm-.642 0v.114H-9V-.6zm6.008-.172v.057h-.058v-.056zm1.283 0v.057h-.058v-.056zm-5.133 0v.057h-.058v-.056zm-1.283 0v.057H-7.6v-.056zM-8.067-1v.229h.058V-1h.058v.229h.058V-1h.058v.286h-.292v-.114H-8.3v.057h.117v.057h-.175v-.172h.233V-1h.058zM3.482-1v.229h.058V-1h.06v.229h.058V-1h.058v.286h-.292v-.114h-.175v.057h.117v.057h-.175v-.172h.233V-1h.058zM-5.5-1v.229h.058V-1h.058v.229h.058V-1h.058v.286h-.292v-.114h-.175v.057h.117v.057h-.175v-.172h.233V-1h.06zm7.7 0v.229h.058V-1h.058v.229h.058V-1h.058v.286h-.291v-.114h-.175v.057h.117v.057h-.234v-.172h.233V-1H2.2zm-5.774.114v.114h.174v-.056h-.117v-.058h.175v.172h-.292v-.114h-.175v.114h-.058v-.172h.292zM-6.784-1v.229h.058V-1h.058v.229h.058V-1h.058v.286h-.292v-.114h-.175v.057h.119v.057h-.175v-.172h.233V-1h.058zm8.341.114v.114h.175v-.056h-.116v-.058h.175v.172H1.5v-.114h-.234v.114h-.059v-.172h.35zm-1.4.114v.057H.1v-.056zm-5.133 0v.057h-.058v-.056zm7.7 0v.057h-.058v-.056zm-7.583-.114v.114h.175v-.056H-4.8v-.058h.175v.172h-.292v-.114h-.175v.114h-.058v-.172h.292zM4.765-1v.229h.058V-1h.058v.229h.059V-1H5v.286h-.293v-.114h-.175v.057h.117v.057h-.234v-.172h.233V-1h.117zM.274-.886v.114h.175v-.056H.332v-.058h.175v.172H.216v-.114H.041v.114h-.117v-.172h.35zm-2.566 0v.114h.175v-.056h-.117v-.058h.175v.172h-.292v-.114h-.175v.114h-.058v-.172h.292zM.916-1v.229h.058V-1h.058v.229h.058V-1h.058v.286H.857v-.114H.682v.057H.8v.057H.566v-.172H.8V-1h.116zm-5.133 0v.229h.058V-1h.059v.229h.058V-1h.058v.286h-.292v-.114h-.174v.057h.117v.057h-.175v-.172h.233V-1h.058zm8.341.114v.114H4.3v-.056h-.118v-.058h.175v.172h-.292v-.114h-.233v.114h-.058v-.172h.35zM-2.934-1v.229h.058V-1h.058v.229h.058V-1h.06v.286h-.292v-.114h-.175v.057h.117v.057h-.175v-.172h.233V-1h.058zm4.375.229v.057h-.059v-.057zm-8.866-.115v.114h.175v-.056h-.117v-.058h.175v.172h-.292v-.114h-.175v.114h-.058v-.172h.292zm11.374.115v.057h-.058v-.057zM2.841-.886v.114h.175v-.056H2.9v-.058h.175v.172h-.293v-.114h-.175v.114h-.058v-.172h.292zm-6.533.114v.057h-.058v-.056zM-.367-1v.229h.058V-1h.058v.229h.058V-1h.058v.286h-.291v-.114H-.6v.057h.117v.057h-.234v-.172h.233V-1h.117zm-1.284 0v.229h.058V-1h.058v.229h.058V-1h.058v.286h-.292v-.114h-.175v.057h.117v.057h-.175v-.172h.233V-1h.058zm.642.114v.114h.175v-.056h-.117v-.058h.175v.172h-.292v-.114h-.175v.114H-1.3v-.172h.292zm-5.133 0v.114h.175v-.056h-.117v-.058h.175v.172H-6.2v-.114h-.175v.114h-.058v-.172h.292zm-2.683.114v.057h-.058v-.056zm.117-.114v.114h.175v-.056h-.117v-.058h.233v.172h-.292v-.114h-.175v.114H-9v-.172h.292zM-5.617-1v.057h-.817V-1zm-2.566 0v.057H-9V-1zm6.416 0v.057h-.817V-1zm1.283 0v.057H-1.3V-1zM-6.9-1v.057h-.817V-1zm8.982 0v.057h-.875V-1zm-6.416 0v.057h-.816V-1zM4.59-1v.057h-.816V-1zm-7.641 0v.057h-.817V-1zm6.417 0v.057h-.817V-1zM.8-1v.057h-.876V-1z" transform="translate(16 15.102)" style="fill:#fff"/>
    </g>
</svg>
