<svg width="18" height="34" viewBox="0 0 18 34" fill="none" xmlns="http://www.w3.org/2000/svg">
<path d="M17.4572 -0.000766754V33.2637H1.62233C0.729568 33.2637 0 32.6117 0 31.8138V1.44909C0 0.651211 0.729568 -0.000766754 1.62233 -0.000766754H17.4572Z" fill="#274599"/>
<path d="M1.8125 24.5801H2.58732V21.0147H1.8125V24.5801Z" fill="white"/>
<path d="M1.8125 30.8984H2.58732V27.3331H1.8125V30.8984Z" fill="white"/>
<path d="M7.58178 22.6242H6.92878V21.4935H7.58178C7.92852 21.4935 8.21431 21.7442 8.21431 22.0588C8.21431 22.3688 7.92852 22.6242 7.58178 22.6242ZM9.11723 24.5801C8.92332 24.302 8.91317 24.0467 8.77027 23.5041C8.62758 22.9661 8.20416 22.9159 8.20416 22.9159C9.0152 22.6515 8.93867 21.9129 8.93867 21.9129C8.86215 21.0466 7.89287 21.0147 7.89287 21.0147H6.19922V24.5801H6.94909V23.112C6.94909 23.112 7.38792 23.0117 7.77548 23.2533C8.1633 23.495 8.24497 24.5801 8.24497 24.5801H9.11723Z" fill="white"/>
<path d="M5.47615 28.9425H4.82311V27.8118H5.47615C5.82306 27.8118 6.10884 28.0626 6.10884 28.3772C6.10884 28.6872 5.82306 28.9425 5.47615 28.9425ZM6.09849 29.2343C6.90973 28.9699 6.83321 28.2313 6.83321 28.2313C6.75668 27.365 5.7874 27.3331 5.7874 27.3331H4.09375V30.8984H4.84362V29.4304C4.84362 29.4304 5.28225 29.33 5.67001 29.5717C6.05783 29.8133 6.13935 30.8984 6.13935 30.8984H7.01176C6.81785 30.6203 6.8077 30.365 6.6648 29.8225C6.52196 29.2845 6.09849 29.2343 6.09849 29.2343Z" fill="white"/>
<path d="M4.47019 24.6719C4.74281 24.6719 4.96381 24.4745 4.96381 24.2305C4.96381 23.9871 4.74281 23.7897 4.47019 23.7897C4.19756 23.7897 3.97656 23.9871 3.97656 24.2305C3.97656 24.4745 4.19756 24.6719 4.47019 24.6719Z" fill="white"/>
<path d="M10.6225 24.6719C10.8951 24.6719 11.1159 24.4745 11.1159 24.2305C11.1159 23.9871 10.8951 23.7897 10.6225 23.7897C10.3499 23.7897 10.1289 23.9871 10.1289 24.2305C10.1289 24.4745 10.3499 24.6719 10.6225 24.6719Z" fill="white"/>
<path d="M9.18654 29.4121L9.69154 27.8939L10.1965 29.4121H9.18654ZM9.18654 27.3331L7.95703 30.8984H8.77327L9.0385 29.8726H10.324L10.666 30.8984H11.4822L10.1965 27.3331H9.18654Z" fill="white"/>
<path d="M15.2509 27.3331V30.0167L13.5633 27.3331H12.668V30.8984H13.3683V28.0881L15.1361 30.8984H15.9279V27.3331H15.2509Z" fill="white"/>
<path d="M1.5625 3.00277H14.6409V9.68164H1.5625V3.00277Z" fill="#E11D25"/>
<path d="M1.5625 3.00444H14.6409V7.45703H1.5625V3.00444Z" fill="white"/>
<path d="M1.5625 3.00417H14.6409V5.23047H1.5625V3.00417Z" fill="#36AC46"/>
<path d="M2.49001 4.9195H1.73438V4.86753H2.49001V4.9195ZM1.90875 5.12695H1.85074V5.07498H1.90875V5.12695ZM2.25748 5.12695H1.9669V5.023H1.79253V5.12695H1.73438V4.97103H2.02511V5.07498H2.19948V5.023H2.08311V4.97103H2.25748V5.12695ZM2.83875 5.12695H2.54822V5.023H2.37385V5.07498H2.49001V5.12695H2.31564V4.97103H2.54822V4.86753H2.60638V5.07498H2.66438V4.86753H2.72259V5.07498H2.78074V4.86753H2.83875V5.12695Z" fill="white"/>
<path d="M2.25769 5.28125H1.73438V5.17731H2.25769V5.28125ZM2.83875 5.28125H2.31564V5.17731H2.83875V5.28125Z" fill="white"/>
<path d="M2.25769 7.50781H1.73438V7.40386H2.25769V7.50781ZM2.83875 7.50781H2.31564V7.40386H2.83875V7.50781Z" fill="white"/>
<path d="M2.49001 7.61241H1.73438V7.56044H2.49001V7.61241ZM1.90875 7.82031H1.85074V7.76833H1.90875V7.82031ZM2.25748 7.82031H1.9669V7.71636H1.79253V7.82031H1.73438V7.66438H2.02511V7.76833H2.19948V7.71636H2.08311V7.66438H2.25748V7.82031ZM2.83875 7.82031H2.54822V7.71636H2.37385V7.76833H2.49001V7.82031H2.31564V7.66438H2.54822V7.56044H2.60638V7.76833H2.66438V7.56044H2.72259V7.76833H2.78074V7.56044H2.83875V7.82031Z" fill="white"/>
<path d="M3.65407 4.9195H2.89844V4.86753H3.65407V4.9195ZM3.07281 5.12695H3.0146V5.07498H3.07281V5.12695ZM3.42155 5.12695H3.13096V5.023H2.9566V5.12695H2.89844V4.97103H3.18897V5.07498H3.36354V5.023H3.24718V4.97103H3.42155V5.12695ZM4.00281 5.12695H3.71228V5.023H3.53791V5.07498H3.65407V5.12695H3.4797V4.97103H3.71228V4.86753H3.77029V5.07498H3.82844V4.86753H3.88665V5.07498H3.94465V4.86753H4.00281V5.12695Z" fill="white"/>
<path d="M3.42155 5.28125H2.89844V5.17731H3.42155V5.28125ZM4.00281 5.28125H3.4797V5.17731H4.00281V5.28125Z" fill="white"/>
<path d="M3.42155 7.50781H2.89844V7.40386H3.42155V7.50781ZM4.00281 7.50781H3.4797V7.40386H4.00281V7.50781Z" fill="white"/>
<path d="M3.65407 7.61241H2.89844V7.56044H3.65407V7.61241ZM3.07281 7.82031H3.0146V7.76833H3.07281V7.82031ZM3.42155 7.82031H3.13096V7.71636H2.9566V7.82031H2.89844V7.66438H3.18897V7.76833H3.36354V7.71636H3.24718V7.66438H3.42155V7.82031ZM4.00281 7.82031H3.71228V7.71636H3.53791V7.76833H3.65407V7.82031H3.4797V7.66438H3.71228V7.56044H3.77029V7.76833H3.82844V7.56044H3.88665V7.76833H3.94465V7.56044H4.00281V7.82031Z" fill="white"/>
<path d="M4.81814 4.9195H4.0625V4.86753H4.81814V4.9195ZM4.23687 5.12695H4.17866V5.07498H4.23687V5.12695ZM4.58561 5.12695H4.29487V5.023H4.12051V5.12695H4.0625V4.97103H4.35303V5.07498H4.5274V5.023H4.41124V4.97103H4.58561V5.12695ZM5.16687 5.12695H4.87614V5.023H4.70177V5.07498H4.81814V5.12695H4.64376V4.97103H4.87614V4.86753H4.93435V5.07498H4.9925V4.86753H5.05051V5.07498H5.10872V4.86753H5.16687V5.12695Z" fill="white"/>
<path d="M4.58561 5.28125H4.0625V5.17731H4.58561V5.28125ZM5.16687 5.28125H4.64376V5.17731H5.16687V5.28125Z" fill="white"/>
<path d="M4.58561 7.50781H4.0625V7.40386H4.58561V7.50781ZM5.16687 7.50781H4.64376V7.40386H5.16687V7.50781Z" fill="white"/>
<path d="M4.81814 7.61241H4.0625V7.56044H4.81814V7.61241ZM4.23687 7.82031H4.17866V7.76833H4.23687V7.82031ZM4.58561 7.82031H4.29487V7.71636H4.12051V7.82031H4.0625V7.66438H4.35303V7.76833H4.5274V7.71636H4.41124V7.66438H4.58561V7.82031ZM5.16687 7.82031H4.87614V7.71636H4.70177V7.76833H4.81814V7.82031H4.64376V7.66438H4.87614V7.56044H4.93435V7.76833H4.9925V7.56044H5.05051V7.76833H5.10872V7.56044H5.16687V7.82031Z" fill="white"/>
<path d="M5.97829 4.9195H5.22266V4.86753H5.97829V4.9195ZM5.39723 5.12695H5.33902V5.07498H5.39723V5.12695ZM5.74597 5.12695H5.45523V5.023H5.28086V5.12695H5.22266V4.97103H5.51339V5.07498H5.68776V5.023H5.5716V4.97103H5.74597V5.12695ZM6.32703 5.12695H6.0365V5.023H5.86213V5.07498H5.97829V5.12695H5.80397V4.97103H6.0365V4.86753H6.09471V5.07498H6.15266V4.86753H6.21087V5.07498H6.26908V4.86753H6.32703V5.12695Z" fill="white"/>
<path d="M5.74597 5.28125H5.22266V5.17731H5.74597V5.28125ZM6.32703 5.28125H5.80397V5.17731H6.32703V5.28125Z" fill="white"/>
<path d="M5.74597 7.50781H5.22266V7.40386H5.74597V7.50781ZM6.32703 7.50781H5.80397V7.40386H6.32703V7.50781Z" fill="white"/>
<path d="M5.97829 7.61241H5.22266V7.56044H5.97829V7.61241ZM5.39723 7.82031H5.33902V7.76833H5.39723V7.82031ZM5.74597 7.82031H5.45523V7.71636H5.28086V7.82031H5.22266V7.66438H5.51339V7.76833H5.68776V7.71636H5.5716V7.66438H5.74597V7.82031ZM6.32703 7.82031H6.0365V7.71636H5.86213V7.76833H5.97829V7.82031H5.80397V7.66438H6.0365V7.56044H6.09471V7.76833H6.15266V7.56044H6.21087V7.76833H6.26908V7.56044H6.32703V7.82031Z" fill="white"/>
<path d="M7.14241 4.9195H6.38672V4.86753H7.14241V4.9195ZM6.56109 5.12695H6.50288V5.07498H6.56109V5.12695ZM6.90983 5.12695H6.6193V5.023H6.44493V5.12695H6.38672V4.97103H6.67725V5.07498H6.85162V5.023H6.73546V4.97103H6.90983V5.12695ZM7.49109 5.12695H7.20056V5.023H7.02599V5.07498H7.14241V5.12695H6.96804V4.97103H7.20056V4.86753H7.25857V5.07498H7.31678V4.86753H7.37493V5.07498H7.43294V4.86753H7.49109V5.12695Z" fill="white"/>
<path d="M6.90983 5.28125H6.38672V5.17731H6.90983V5.28125ZM7.49109 5.28125H6.96804V5.17731H7.49109V5.28125Z" fill="white"/>
<path d="M6.90983 7.50781H6.38672V7.40386H6.90983V7.50781ZM7.49109 7.50781H6.96804V7.40386H7.49109V7.50781Z" fill="white"/>
<path d="M7.14241 7.61241H6.38672V7.56044H7.14241V7.61241ZM6.56109 7.82031H6.50288V7.76833H6.56109V7.82031ZM6.90983 7.82031H6.6193V7.71636H6.44493V7.82031H6.38672V7.66438H6.67725V7.76833H6.85162V7.71636H6.73546V7.66438H6.90983V7.82031ZM7.49109 7.82031H7.20056V7.71636H7.02599V7.76833H7.14241V7.82031H6.96804V7.66438H7.20056V7.56044H7.25857V7.76833H7.31678V7.56044H7.37493V7.76833H7.43294V7.56044H7.49109V7.82031Z" fill="white"/>
<path d="M8.30256 4.9195H7.54688V4.86753H8.30256V4.9195ZM7.72125 5.12695H7.66304V5.07498H7.72125V5.12695ZM8.06998 5.12695H7.77945V5.023H7.60488V5.12695H7.54688V4.97103H7.83741V5.07498H8.01178V5.023H7.89561V4.97103H8.06998V5.12695ZM8.6513 5.12695H8.36052V5.023H8.18615V5.07498H8.30256V5.12695H8.12819V4.97103H8.36052V4.86753H8.41872V5.07498H8.47693V4.86753H8.53488V5.07498H8.59309V4.86753H8.6513V5.12695Z" fill="white"/>
<path d="M8.06998 5.28125H7.54688V5.17731H8.06998V5.28125ZM8.6513 5.28125H8.12819V5.17731H8.6513V5.28125Z" fill="white"/>
<path d="M8.06998 7.50781H7.54688V7.40386H8.06998V7.50781ZM8.6513 7.50781H8.12819V7.40386H8.6513V7.50781Z" fill="white"/>
<path d="M8.30256 7.61241H7.54688V7.56044H8.30256V7.61241ZM7.72125 7.82031H7.66304V7.76833H7.72125V7.82031ZM8.06998 7.82031H7.77945V7.71636H7.60488V7.82031H7.54688V7.66438H7.83741V7.76833H8.01178V7.71636H7.89561V7.66438H8.06998V7.82031ZM8.6513 7.82031H8.36052V7.71636H8.18615V7.76833H8.30256V7.82031H8.12819V7.66438H8.36052V7.56044H8.41872V7.76833H8.47693V7.56044H8.53488V7.76833H8.59309V7.56044H8.6513V7.82031Z" fill="white"/>
<path d="M9.46662 4.9195H8.71094V4.86753H9.46662V4.9195ZM8.88531 5.12695H8.82735V5.07498H8.88531V5.12695ZM9.23404 5.12695H8.94352V5.023H8.76915V5.12695H8.71094V4.97103H9.00167V5.07498H9.17604V5.023H9.05968V4.97103H9.23404V5.12695ZM9.81536 5.12695H9.52478V5.023H9.35041V5.07498H9.46662V5.12695H9.29226V4.97103H9.52478V4.86753H9.58299V5.07498H9.64099V4.86753H9.69915V5.07498H9.75736V4.86753H9.81536V5.12695Z" fill="white"/>
<path d="M9.23404 5.28125H8.71094V5.17731H9.23404V5.28125ZM9.81536 5.28125H9.29226V5.17731H9.81536V5.28125Z" fill="white"/>
<path d="M9.23404 7.50781H8.71094V7.40386H9.23404V7.50781ZM9.81536 7.50781H9.29226V7.40386H9.81536V7.50781Z" fill="white"/>
<path d="M9.46662 7.61241H8.71094V7.56044H9.46662V7.61241ZM8.88531 7.82031H8.82735V7.76833H8.88531V7.82031ZM9.23404 7.82031H8.94352V7.71636H8.76915V7.82031H8.71094V7.66438H9.00167V7.76833H9.17604V7.71636H9.05968V7.66438H9.23404V7.82031ZM9.81536 7.82031H9.52478V7.71636H9.35041V7.76833H9.46662V7.82031H9.29226V7.66438H9.52478V7.56044H9.58299V7.76833H9.64099V7.56044H9.69915V7.76833H9.75736V7.56044H9.81536V7.82031Z" fill="white"/>
<path d="M10.6307 4.9195H9.875V4.86753H10.6307V4.9195ZM10.0494 5.12695H9.99121V5.07498H10.0494V5.12695ZM10.3981 5.12695H10.1076V5.023H9.93321V5.12695H9.875V4.97103H10.1658V5.07498H10.3402V5.023H10.2237V4.97103H10.3981V5.12695ZM10.9794 5.12695H10.6888V5.023H10.5145V5.07498H10.6307V5.12695H10.4563V4.97103H10.6888V4.86753H10.7468V5.07498H10.8051V4.86753H10.8632V5.07498H10.9212V4.86753H10.9794V5.12695Z" fill="white"/>
<path d="M10.3981 5.28125H9.875V5.17731H10.3981V5.28125ZM10.9794 5.28125H10.4563V5.17731H10.9794V5.28125Z" fill="white"/>
<path d="M10.3981 7.50781H9.875V7.40386H10.3981V7.50781ZM10.9794 7.50781H10.4563V7.40386H10.9794V7.50781Z" fill="white"/>
<path d="M10.6307 7.61241H9.875V7.56044H10.6307V7.61241ZM10.0494 7.82031H9.99121V7.76833H10.0494V7.82031ZM10.3981 7.82031H10.1076V7.71636H9.93321V7.82031H9.875V7.66438H10.1658V7.76833H10.3402V7.71636H10.2237V7.66438H10.3981V7.82031ZM10.9794 7.82031H10.6888V7.71636H10.5145V7.76833H10.6307V7.82031H10.4563V7.66438H10.6888V7.56044H10.7468V7.76833H10.8051V7.56044H10.8632V7.76833H10.9212V7.56044H10.9794V7.82031Z" fill="white"/>
<path d="M11.7908 4.9195H11.0352V4.86753H11.7908V4.9195ZM11.2095 5.12695H11.1514V5.07498H11.2095V5.12695ZM11.5583 5.12695H11.2677V5.023H11.0934V5.12695H11.0352V4.97103H11.3257V5.07498H11.5001V5.023H11.3839V4.97103H11.5583V5.12695ZM12.1396 5.12695H11.8488V5.023H11.6745V5.07498H11.7908V5.12695H11.6165V4.97103H11.8488V4.86753H11.907V5.07498H11.9652V4.86753H12.0232V5.07498H12.0814V4.86753H12.1396V5.12695Z" fill="white"/>
<path d="M11.5583 5.28125H11.0352V5.17731H11.5583V5.28125ZM12.1396 5.28125H11.6165V5.17731H12.1396V5.28125Z" fill="white"/>
<path d="M11.5583 7.50781H11.0352V7.40386H11.5583V7.50781ZM12.1396 7.50781H11.6165V7.40386H12.1396V7.50781Z" fill="white"/>
<path d="M11.7908 7.61241H11.0352V7.56044H11.7908V7.61241ZM11.2095 7.82031H11.1514V7.76833H11.2095V7.82031ZM11.5583 7.82031H11.2677V7.71636H11.0934V7.82031H11.0352V7.66438H11.3257V7.76833H11.5001V7.71636H11.3839V7.66438H11.5583V7.82031ZM12.1396 7.82031H11.8488V7.71636H11.6745V7.76833H11.7908V7.82031H11.6165V7.66438H11.8488V7.56044H11.907V7.76833H11.9652V7.56044H12.0232V7.76833H12.0814V7.56044H12.1396V7.82031Z" fill="white"/>
<path d="M12.9549 4.9195H12.1992V4.86753H12.9549V4.9195ZM12.3736 5.12695H12.3156V5.07498H12.3736V5.12695ZM12.7223 5.12695H12.4317V5.023H12.2574V5.12695H12.1992V4.97103H12.49V5.07498H12.6643V5.023H12.5479V4.97103H12.7223V5.12695ZM13.3036 5.12695H13.0131V5.023H12.8387V5.07498H12.9549V5.12695H12.7805V4.97103H13.0131V4.86753H13.0712V5.07498H13.1292V4.86753H13.1874V5.07498H13.2456V4.86753H13.3036V5.12695Z" fill="white"/>
<path d="M12.7225 5.28125H12.1992V5.17731H12.7225V5.28125ZM13.3038 5.28125H12.7805V5.17731H13.3038V5.28125Z" fill="white"/>
<path d="M12.7225 7.50781H12.1992V7.40386H12.7225V7.50781ZM13.3038 7.50781H12.7805V7.40386H13.3038V7.50781Z" fill="white"/>
<path d="M12.9549 7.61241H12.1992V7.56044H12.9549V7.61241ZM12.3736 7.82031H12.3156V7.76833H12.3736V7.82031ZM12.7223 7.82031H12.4317V7.71636H12.2574V7.82031H12.1992V7.66438H12.49V7.76833H12.6643V7.71636H12.5479V7.66438H12.7223V7.82031ZM13.3036 7.82031H13.0131V7.71636H12.8387V7.76833H12.9549V7.82031H12.7805V7.66438H13.0131V7.56044H13.0712V7.76833H13.1292V7.56044H13.1874V7.76833H13.2456V7.56044H13.3036V7.82031Z" fill="white"/>
<path d="M14.1189 4.9195H13.3633V4.86753H14.1189V4.9195ZM13.5376 5.12695H13.4796V5.07498H13.5376V5.12695ZM13.8864 5.12695H13.5958V5.023H13.4214V5.12695H13.3633V4.97103H13.654V5.07498H13.8284V5.023H13.712V4.97103H13.8864V5.12695ZM14.4677 5.12695H14.1771V5.023H14.0028V5.07498H14.1189V5.12695H13.9445V4.97103H14.1771V4.86753H14.2351V5.07498H14.2933V4.86753H14.3515V5.07498H14.4094V4.86753H14.4677V5.12695Z" fill="white"/>
<path d="M13.8864 5.28125H13.3633V5.17731H13.8864V5.28125ZM14.4677 5.28125H13.9445V5.17731H14.4677V5.28125Z" fill="white"/>
<path d="M13.8864 7.50781H13.3633V7.40386H13.8864V7.50781ZM14.4677 7.50781H13.9445V7.40386H14.4677V7.50781Z" fill="white"/>
<path d="M14.1189 7.61241H13.3633V7.56044H14.1189V7.61241ZM13.5376 7.82031H13.4796V7.76833H13.5376V7.82031ZM13.8864 7.82031H13.5958V7.71636H13.4214V7.82031H13.3633V7.66438H13.654V7.76833H13.8284V7.71636H13.712V7.66438H13.8864V7.82031ZM14.4677 7.82031H14.1771V7.71636H14.0028V7.76833H14.1189V7.82031H13.9445V7.66438H14.1771V7.56044H14.2351V7.76833H14.2933V7.56044H14.3515V7.76833H14.4094V7.56044H14.4677V7.82031Z" fill="white"/>
<path d="M7.58594 7.04065C8.03354 7.17059 8.51421 6.95175 8.65945 6.5519C8.76566 6.26011 8.66526 5.93959 8.40498 5.73944C8.69373 6.1215 8.58155 6.64036 8.15409 6.89841C7.98692 6.99963 7.7876 7.04932 7.58594 7.04065Z" fill="#E11D25"/>
<path d="M8.67594 6.89453C9.01728 6.71809 9.13386 6.32827 8.93679 6.02325C8.84011 5.87371 8.67972 5.76566 8.49219 5.72371C8.9047 6.00046 8.98759 6.52386 8.67752 6.89271C8.67691 6.89316 8.6765 6.89408 8.67594 6.89453Z" fill="#E11D25"/>
<path d="M8.10152 7.17773L8.05469 6.34293L8.10152 5.68549C8.12983 5.72105 8.16769 5.74932 8.21171 5.76847V6.25905L8.17406 7.08837L8.10152 7.17773Z" fill="#E11D25"/>
<path d="M8.08203 5.63411L8.10075 5.65006C8.14361 5.70432 8.22773 5.71755 8.28849 5.67925C8.33971 5.64688 8.35945 5.5876 8.33614 5.53608C8.32318 5.59763 8.2566 5.63821 8.18727 5.62681C8.151 5.62043 8.11932 5.60037 8.10075 5.5721" fill="#E11D25"/>
<path d="M8.61135 7.04065C8.164 7.17059 7.68313 6.95175 7.53789 6.5519C7.43163 6.26011 7.53208 5.93959 7.79256 5.73944C7.50361 6.1215 7.616 6.64036 8.04345 6.89841C8.21063 6.99963 8.40989 7.04932 8.61135 7.04065Z" fill="#E11D25"/>
<path d="M7.52062 6.89453C7.17948 6.71809 7.06271 6.32827 7.25999 6.02325C7.35661 5.87371 7.51705 5.76566 7.70438 5.72371C7.29208 6.00046 7.20897 6.52386 7.51904 6.89271C7.51966 6.89316 7.52001 6.89408 7.52062 6.89453Z" fill="#E11D25"/>
<path d="M8.10258 7.17773L8.14921 6.34293L8.10258 5.68549C8.07412 5.72105 8.03626 5.74932 7.99219 5.76847V6.25905L8.02989 7.08837L8.10258 7.17773Z" fill="#E11D25"/>
<path d="M8.11916 5.63411L8.10059 5.65006C8.05774 5.70432 7.97367 5.71755 7.91271 5.67925C7.86169 5.64688 7.84195 5.5876 7.86506 5.53608C7.87822 5.59763 7.94479 5.63821 8.01392 5.62681C8.05039 5.62043 8.08187 5.60037 8.10059 5.5721" fill="#E11D25"/>
</svg>
